<svg xmlns="http://www.w3.org/2000/svg" viewBox="0 0 232.42 74.09">
  <title>dri_logo</title>
  <g>
    <path d="M.73,74.06a1.09,1.09,0,0,0,1.06,1.09,1.09,1.09,0,0,0,1.09-1.09V56.92a1.09,1.09,0,0,0-1.09-1.09A1.09,1.09,0,0,0,.73,56.92V74.06Z" transform="translate(-0.29 -1.25)" fill="#734f2c"/>
    <path d="M8.45,74.08a1,1,0,1,0,2.09,0V59.34l11.8,15.09a1.47,1.47,0,0,0,1.11.65h.11a1,1,0,0,0,1-1V56.9a1,1,0,1,0-2.09,0V71.26L10.9,56.52a1.31,1.31,0,0,0-1.09-.63h-.3A1.08,1.08,0,0,0,8.45,57V74.08Z" transform="translate(-0.29 -1.25)" fill="#734f2c"/>
    <path d="M35,74.06a1.09,1.09,0,1,0,2.18,0V58h5.52a1,1,0,0,0,1-1,1,1,0,0,0-1-1H29.45a1,1,0,0,0-1,1,1,1,0,0,0,1,1H35v16.1Z" transform="translate(-0.29 -1.25)" fill="#734f2c"/>
    <path d="M48.62,75h12a1,1,0,0,0,0-2H49.71V66.39h9.52a1,1,0,0,0,1-1,1,1,0,0,0-1-1H49.71v-6.5H60.45a1,1,0,1,0,0-2H48.62a1.09,1.09,0,0,0-1.06,1.09V73.92A1.09,1.09,0,0,0,48.62,75Z" transform="translate(-0.29 -1.25)" fill="#734f2c"/>
    <path d="M65.78,74.06a1.07,1.07,0,1,0,2.15,0V67.61H73.4l5.36,7a1.25,1.25,0,0,0,1,.57,1.12,1.12,0,0,0,1.09-1.06,1.17,1.17,0,0,0-.35-.79L75.76,67.2c3-.57,5.09-2.39,5.09-5.52v-.05a5.26,5.26,0,0,0-1.47-3.75A7.51,7.51,0,0,0,74,56H66.84a1.09,1.09,0,0,0-1.06,1.09v17Zm2.15-8.38V58h5.87c3.07,0,4.87,1.41,4.87,3.75v.05c0,2.45-2,3.92-4.9,3.92Z" transform="translate(-0.29 -1.25)" fill="#734f2c" fill-rule="evenodd"/>
    <path d="M85.45,74.08a1,1,0,1,0,2.09,0V59.34l11.8,15.09a1.47,1.47,0,0,0,1.12.65h.11a1,1,0,0,0,1-1V56.9a1,1,0,1,0-2.09,0V71.26L87.89,56.52a1.31,1.31,0,0,0-1.09-.63h-.3A1.08,1.08,0,0,0,85.45,57V74.08Z" transform="translate(-0.29 -1.25)" fill="#734f2c"/>
    <path d="M105.63,74.17a1,1,0,0,0,1,1,1.08,1.08,0,0,0,1-.73l2-4.43h10.44l2,4.38a1.17,1.17,0,0,0,1.06.79,1,1,0,0,0,1-1,1.45,1.45,0,0,0-.14-.54l-7.72-16.86a1.37,1.37,0,0,0-1.33-1h-.11a1.4,1.4,0,0,0-1.36,1l-7.72,16.89a1.24,1.24,0,0,0-.14.57ZM110.47,68l4.38-9.74L119.22,68Z" transform="translate(-0.29 -1.25)" fill="#734f2c" fill-rule="evenodd"/>
    <path d="M133.28,74.06a1.09,1.09,0,1,0,2.18,0V58H141a1,1,0,0,0,1-1,1,1,0,0,0-1-1H127.76a1,1,0,0,0-1,1,1,1,0,0,0,1,1h5.52v16.1Z" transform="translate(-0.29 -1.25)" fill="#734f2c"/>
    <path d="M146.07,74.06a1.07,1.07,0,1,0,2.15,0V56.92a1.07,1.07,0,1,0-2.15,0V74.06Z" transform="translate(-0.29 -1.25)" fill="#734f2c"/>
    <path d="M162.63,75.34a9.65,9.65,0,0,0,9.74-9.85v-.05a9.71,9.71,0,1,0-19.42.05v.05a9.56,9.56,0,0,0,9.68,9.79Zm.05-2a7.57,7.57,0,0,1-7.51-7.86v-.05a7.48,7.48,0,0,1,7.45-7.81,7.57,7.57,0,0,1,7.51,7.86v.05a7.48,7.48,0,0,1-7.45,7.81Z" transform="translate(-0.29 -1.25)" fill="#734f2c" fill-rule="evenodd"/>
    <path d="M176.91,74.08a1,1,0,1,0,2.09,0V59.34l11.8,15.09a1.47,1.47,0,0,0,1.12.65H192a1,1,0,0,0,1-1V56.9a1,1,0,1,0-2.09,0V71.26L179.36,56.52a1.31,1.31,0,0,0-1.09-.63H178A1.08,1.08,0,0,0,176.91,57V74.08Z" transform="translate(-0.29 -1.25)" fill="#734f2c"/>
    <path d="M197.09,74.17a1,1,0,0,0,1,1,1.08,1.08,0,0,0,1-.73l2-4.43h10.44l2,4.38a1.17,1.17,0,0,0,1.06.79,1,1,0,0,0,1-1,1.45,1.45,0,0,0-.14-.54l-7.72-16.86a1.37,1.37,0,0,0-1.33-1h-.11a1.4,1.4,0,0,0-1.36,1l-7.72,16.89a1.24,1.24,0,0,0-.14.57ZM201.93,68l4.38-9.74L210.69,68Z" transform="translate(-0.29 -1.25)" fill="#734f2c" fill-rule="evenodd"/>
    <path d="M219.72,73.92A1.09,1.09,0,0,0,220.78,75h11a1,1,0,0,0,1-1,1,1,0,0,0-1-1h-9.87V56.92a1.07,1.07,0,1,0-2.15,0v17Z" transform="translate(-0.29 -1.25)" fill="#734f2c"/>
    <path d="M.29,46.29A1.65,1.65,0,0,0,2,47.95a1.65,1.65,0,0,0,1.66-1.66V41.18H7.85l4.62,5.9a1.91,1.91,0,0,0,1.63.87,1.58,1.58,0,0,0,1.6-1.55,1.94,1.94,0,0,0-.54-1.28l-3.64-4.6a5.63,5.63,0,0,0,4.32-5.68v-.05a5.76,5.76,0,0,0-1.58-4.11,7.67,7.67,0,0,0-5.49-1.9H2A1.66,1.66,0,0,0,.29,30.46V46.29Zm3.35-8.08V31.82H8.51c2.47,0,3.94,1.12,3.94,3.15V35c0,1.93-1.52,3.18-3.92,3.18Z" transform="translate(-0.29 -1.25)" fill="#734f2c" fill-rule="evenodd"/>
    <path d="M21.64,47.81H32.85a1.49,1.49,0,0,0,1.5-1.5,1.51,1.51,0,0,0-1.5-1.5H23.3V39.71h8.19A1.49,1.49,0,0,0,33,38.24a1.52,1.52,0,0,0-1.5-1.52H23.3V31.77h9.41a1.49,1.49,0,0,0,1.5-1.5,1.51,1.51,0,0,0-1.5-1.5H21.64A1.66,1.66,0,0,0,20,30.46V46.13a1.66,1.66,0,0,0,1.69,1.69Z" transform="translate(-0.29 -1.25)" fill="#734f2c"/>
    <path d="M38.18,46.29a1.67,1.67,0,0,0,3.35,0v-4.6H45.3c4.19,0,7.62-2.23,7.62-6.5v-.05c0-3.83-2.77-6.36-7.23-6.36H39.86a1.66,1.66,0,0,0-1.69,1.69V46.29Zm3.35-7.62V31.82h3.89c2.5,0,4.11,1.17,4.11,3.4v.05c0,2-1.58,3.4-4.11,3.4Z" transform="translate(-0.29 -1.25)" fill="#734f2c" fill-rule="evenodd"/>
    <path d="M65.43,48.14a9.75,9.75,0,0,0,10-9.85v-.05a10,10,0,0,0-19.91.05v.05a9.66,9.66,0,0,0,9.93,9.79Zm.05-3.1A6.5,6.5,0,0,1,59,38.29v-.05a6.43,6.43,0,0,1,6.42-6.72,6.52,6.52,0,0,1,6.47,6.77v.05A6.41,6.41,0,0,1,65.48,45Z" transform="translate(-0.29 -1.25)" fill="#734f2c" fill-rule="evenodd"/>
    <path d="M79.46,46.29a1.67,1.67,0,0,0,3.35,0V41.18H87l4.62,5.9a1.91,1.91,0,0,0,1.63.87,1.58,1.58,0,0,0,1.6-1.55,1.94,1.94,0,0,0-.54-1.28l-3.64-4.6A5.63,5.63,0,0,0,95,34.84v-.05a5.75,5.75,0,0,0-1.58-4.11,7.67,7.67,0,0,0-5.49-1.9h-6.8a1.66,1.66,0,0,0-1.69,1.69V46.29Zm3.35-8.08V31.82h4.87c2.48,0,3.94,1.12,3.94,3.15V35c0,1.93-1.52,3.18-3.92,3.18Z" transform="translate(-0.29 -1.25)" fill="#734f2c" fill-rule="evenodd"/>
    <path d="M103.8,46.29a1.69,1.69,0,0,0,3.37,0V31.87h4.65a1.55,1.55,0,0,0,0-3.1H99.18a1.55,1.55,0,0,0,0,3.1h4.62V46.29Z" transform="translate(-0.29 -1.25)" fill="#734f2c"/>
    <path d="M116.94,46.29a1.67,1.67,0,0,0,3.35,0v-16a1.67,1.67,0,0,0-3.35,0v16Z" transform="translate(-0.29 -1.25)" fill="#734f2c"/>
    <path d="M125.37,46.32a1.65,1.65,0,0,0,3.29,0V34.24l9.79,12.67a2.11,2.11,0,0,0,1.74,1h.14A1.63,1.63,0,0,0,142,46.26v-16a1.65,1.65,0,0,0-3.29,0V42l-9.52-12.32a2.11,2.11,0,0,0-1.74-1h-.35a1.68,1.68,0,0,0-1.69,1.69v16Z" transform="translate(-0.29 -1.25)" fill="#734f2c"/>
    <path d="M155.89,48.14a12.13,12.13,0,0,0,6.77-2.07,2.31,2.31,0,0,0,1.17-2.12V38.86a1.66,1.66,0,0,0-1.69-1.69h-5.3a1.49,1.49,0,0,0-1.5,1.47,1.46,1.46,0,0,0,1.5,1.44h3.75v3.56a7.77,7.77,0,0,1-4.6,1.44c-3.89,0-6.47-2.88-6.47-6.8v-.05a6.44,6.44,0,0,1,6.17-6.72,7.24,7.24,0,0,1,4.62,1.5,1.76,1.76,0,0,0,1,.38A1.67,1.67,0,0,0,163,31.74a1.7,1.7,0,0,0-.68-1.36,10.33,10.33,0,0,0-6.5-1.93A9.7,9.7,0,0,0,146,38.29v.05a9.45,9.45,0,0,0,9.87,9.79Z" transform="translate(-0.29 -1.25)" fill="#734f2c"/>
    <path d="M.29,18.93A1.66,1.66,0,0,0,2,20.61H7.39c6,0,10.12-4.16,10.12-9.52V11c0-5.36-4.13-9.46-10.12-9.46H2A1.66,1.66,0,0,0,.29,3.26V18.93Zm3.35-1.36V4.62H7.39A6.25,6.25,0,0,1,14,11.1v.05a6.2,6.2,0,0,1-6.61,6.42Z" transform="translate(-0.29 -1.25)" fill="#734f2c" fill-rule="evenodd"/>
    <path d="M23.25,20.61H34.45a1.49,1.49,0,0,0,1.5-1.5,1.51,1.51,0,0,0-1.5-1.5H24.91V12.51h8.19A1.49,1.49,0,0,0,34.59,11a1.51,1.51,0,0,0-1.5-1.52H24.91V4.57h9.41a1.49,1.49,0,0,0,1.5-1.5,1.51,1.51,0,0,0-1.5-1.5H23.25a1.66,1.66,0,0,0-1.69,1.69V18.93a1.66,1.66,0,0,0,1.69,1.69Z" transform="translate(-0.29 -1.25)" fill="#734f2c"/>
    <path d="M39.78,19.12a1.6,1.6,0,0,0,1.63,1.63,1.63,1.63,0,0,0,1.66-1.63V7.72l4.62,6.94a1.56,1.56,0,0,0,2.8,0l4.65-7V19.09a1.68,1.68,0,0,0,1.66,1.66,1.65,1.65,0,0,0,1.69-1.66V3.15a1.68,1.68,0,0,0-1.69-1.69h-.35a1.68,1.68,0,0,0-1.52.87l-5.79,9.06-5.77-9a1.76,1.76,0,0,0-1.55-.9h-.35a1.68,1.68,0,0,0-1.69,1.69v16Z" transform="translate(-0.29 -1.25)" fill="#734f2c"/>
    <path d="M72.47,20.94a9.75,9.75,0,0,0,10-9.85V11a10,10,0,0,0-19.91.05v.05a9.66,9.66,0,0,0,9.93,9.79Zm.05-3.1a6.5,6.5,0,0,1-6.47-6.74V11a6.43,6.43,0,0,1,6.42-6.72,6.52,6.52,0,0,1,6.47,6.77v.05a6.41,6.41,0,0,1-6.42,6.69Z" transform="translate(-0.29 -1.25)" fill="#734f2c" fill-rule="evenodd"/>
    <path d="M95.35,20.94a9.73,9.73,0,0,0,6.91-2.56,1.61,1.61,0,0,0,.54-1.2,1.59,1.59,0,0,0-1.58-1.55,1.52,1.52,0,0,0-1,.38,6.82,6.82,0,0,1-4.76,1.82c-3.64,0-6.28-3-6.28-6.74V11a6.41,6.41,0,0,1,6.28-6.72A6.91,6.91,0,0,1,100,6a1.67,1.67,0,0,0,2.67-1.31A1.67,1.67,0,0,0,102,3.4a10,10,0,0,0-6.53-2.15,9.63,9.63,0,0,0-9.82,9.85v.05a9.57,9.57,0,0,0,9.68,9.79Z" transform="translate(-0.29 -1.25)" fill="#734f2c"/>
    <path d="M106.58,19.09a1.67,1.67,0,0,0,3.35,0V14h4.22l4.62,5.9a1.91,1.91,0,0,0,1.63.87A1.58,1.58,0,0,0,122,19.2a1.94,1.94,0,0,0-.54-1.28l-3.64-4.6a5.63,5.63,0,0,0,4.32-5.68V7.59a5.76,5.76,0,0,0-1.58-4.11,7.67,7.67,0,0,0-5.49-1.9h-6.8a1.66,1.66,0,0,0-1.69,1.69V19.09ZM109.92,11V4.62h4.87c2.48,0,3.94,1.12,3.94,3.16v.05c0,1.93-1.52,3.18-3.92,3.18Z" transform="translate(-0.29 -1.25)" fill="#734f2c" fill-rule="evenodd"/>
    <path d="M124.94,19.2a1.53,1.53,0,0,0,1.55,1.55A1.61,1.61,0,0,0,128,19.69l1.6-3.67h9.25l1.55,3.56a1.72,1.72,0,0,0,1.63,1.17,1.57,1.57,0,0,0,1.58-1.6,1.46,1.46,0,0,0-.19-.71L136.39,2.66a2.09,2.09,0,0,0-2-1.36h-.16a2.12,2.12,0,0,0-2,1.36l-7.07,15.77a1.71,1.71,0,0,0-.22.76Zm6-6.15,3.35-7.7,3.35,7.7Z" transform="translate(-0.29 -1.25)" fill="#734f2c" fill-rule="evenodd"/>
    <path d="M156.1,20.94A9.73,9.73,0,0,0,163,18.38a1.56,1.56,0,0,0-1-2.75,1.52,1.52,0,0,0-1,.38,6.82,6.82,0,0,1-4.76,1.82c-3.64,0-6.28-3-6.28-6.74V11a6.41,6.41,0,0,1,6.28-6.72A6.91,6.91,0,0,1,160.75,6a1.67,1.67,0,0,0,2.67-1.31,1.67,1.67,0,0,0-.65-1.33,10,10,0,0,0-6.53-2.15,9.63,9.63,0,0,0-9.82,9.85v.05a9.57,9.57,0,0,0,9.68,9.79Z" transform="translate(-0.29 -1.25)" fill="#734f2c"/>
    <path d="M172.69,19.09a1.67,1.67,0,0,0,3.35,0v-6l6.5-8.89A2,2,0,0,0,183,3a1.59,1.59,0,0,0-1.63-1.63,1.92,1.92,0,0,0-1.6,1l-5.38,7.67-5.3-7.64a1.93,1.93,0,0,0-1.63-1A1.63,1.63,0,0,0,165.76,3a2.07,2.07,0,0,0,.38,1.17l6.55,9v5.87Z" transform="translate(-0.29 -1.25)" fill="#734f2c"/>
  </g>
</svg>
